<?xml version="1.0" encoding="UTF-8"?>
<svg id="Layer_2" data-name="Layer 2" xmlns="http://www.w3.org/2000/svg" xmlns:xlink="http://www.w3.org/1999/xlink" viewBox="0 0 911.92 448.61">
  <defs>
    <style>
      .cls-1 {
        fill: #fefefe;
      }

      .cls-1, .cls-2, .cls-3, .cls-4, .cls-5, .cls-6, .cls-7, .cls-8, .cls-9, .cls-10, .cls-11, .cls-12, .cls-13, .cls-14, .cls-15 {
        stroke-width: 0px;
      }

      .cls-2 {
        fill: url(#linear-gradient);
      }

      .cls-3 {
        fill: url(#linear-gradient-6);
      }

      .cls-4 {
        fill: #f7f7f7;
      }

      .cls-6 {
        fill: url(#linear-gradient-5);
      }

      .cls-7, .cls-16 {
        fill: #fff;
      }

      .cls-8 {
        fill: url(#linear-gradient-2);
      }

      .cls-9 {
        fill: url(#linear-gradient-7);
      }

      .cls-10 {
        fill: url(#linear-gradient-3);
      }

      .cls-11 {
        fill: #eee;
      }

      .cls-12 {
        fill: url(#linear-gradient-8);
      }

      .cls-16 {
        stroke: #fff;
        stroke-miterlimit: 10;
      }

      .cls-13 {
        fill: #eeeded;
      }

      .cls-14 {
        fill: url(#linear-gradient-4);
      }

      .cls-15 {
        fill: #efefef;
      }
    </style>
    <linearGradient id="linear-gradient" x1="126.17" y1="30.7" x2="127.52" y2="433.68" gradientUnits="userSpaceOnUse">
      <stop offset="0" stop-color="#ecbf43"/>
      <stop offset=".17" stop-color="#ebbb44"/>
      <stop offset=".33" stop-color="#e9b049"/>
      <stop offset=".48" stop-color="#e69d51"/>
      <stop offset=".63" stop-color="#e2835c"/>
      <stop offset=".63" stop-color="#e2825d"/>
    </linearGradient>
    <linearGradient id="linear-gradient-2" x1="820.39" y1="54.07" x2="784.39" y2="281.27" gradientUnits="userSpaceOnUse">
      <stop offset="0" stop-color="#ecbf43"/>
      <stop offset=".42" stop-color="#ebbd43"/>
      <stop offset=".58" stop-color="#eab646"/>
      <stop offset=".69" stop-color="#e8aa4b"/>
      <stop offset=".79" stop-color="#e59953"/>
      <stop offset=".86" stop-color="#e2835c"/>
      <stop offset=".87" stop-color="#e2825d"/>
    </linearGradient>
    <linearGradient id="linear-gradient-3" x1="685.98" y1="8.14" x2="627.05" y2="278.28" gradientUnits="userSpaceOnUse">
      <stop offset="0" stop-color="#ecbf43"/>
      <stop offset=".47" stop-color="#ebbd43"/>
      <stop offset=".64" stop-color="#eab646"/>
      <stop offset=".75" stop-color="#e8aa4b"/>
      <stop offset=".85" stop-color="#e59952"/>
      <stop offset=".93" stop-color="#e2845c"/>
      <stop offset=".94" stop-color="#e2825d"/>
    </linearGradient>
    <linearGradient id="linear-gradient-4" x1="621.57" y1="201.27" x2="587.7" y2="289.27" gradientUnits="userSpaceOnUse">
      <stop offset="0" stop-color="#ecbf43"/>
      <stop offset=".16" stop-color="#eab746"/>
      <stop offset=".4" stop-color="#e7a24e"/>
      <stop offset=".68" stop-color="#e2825d"/>
    </linearGradient>
    <linearGradient id="linear-gradient-5" x1="567.04" y1="49.49" x2="557.97" y2="291.09" gradientUnits="userSpaceOnUse">
      <stop offset="0" stop-color="#ecbf43"/>
      <stop offset=".48" stop-color="#ebbd43"/>
      <stop offset=".65" stop-color="#eab646"/>
      <stop offset=".77" stop-color="#e8aa4b"/>
      <stop offset=".87" stop-color="#e59952"/>
      <stop offset=".95" stop-color="#e2845c"/>
      <stop offset=".96" stop-color="#e2825d"/>
    </linearGradient>
    <linearGradient id="linear-gradient-6" x1="464.59" y1="86.91" x2="464.08" y2="322.7" gradientUnits="userSpaceOnUse">
      <stop offset="0" stop-color="#ecbf43"/>
      <stop offset=".35" stop-color="#ebbc44"/>
      <stop offset=".55" stop-color="#eab447"/>
      <stop offset=".72" stop-color="#e7a54d"/>
      <stop offset=".87" stop-color="#e49156"/>
      <stop offset=".96" stop-color="#e2825d"/>
    </linearGradient>
    <linearGradient id="linear-gradient-7" x1="409.96" y1="95.23" x2="354.23" y2="310.43" gradientUnits="userSpaceOnUse">
      <stop offset="0" stop-color="#ecbf43"/>
      <stop offset=".35" stop-color="#ebbc44"/>
      <stop offset=".54" stop-color="#eab447"/>
      <stop offset=".7" stop-color="#e8a74d"/>
      <stop offset=".83" stop-color="#e49355"/>
      <stop offset=".91" stop-color="#e2825d"/>
    </linearGradient>
    <linearGradient id="linear-gradient-8" x1="289.61" y1="110.5" x2="238.01" y2="350.1" gradientUnits="userSpaceOnUse">
      <stop offset="0" stop-color="#ecbf43"/>
      <stop offset=".19" stop-color="#eab845"/>
      <stop offset=".46" stop-color="#e7a44e"/>
      <stop offset=".78" stop-color="#e2855b"/>
      <stop offset=".81" stop-color="#e2825d"/>
    </linearGradient>
  </defs>
  <g id="Capa_2" data-name="Capa 2">
    <path class="cls-5" d="M911.1,155.81c-6.98-11.56-17.45-22.49-19.27-36.4-.22-1.71-.35-3.56-1.45-4.89-2.73-3.3-7.48.46-10.53,1.28-4.21,1.14-8.71,1.2-13.05,1.24-7.8.07-15.59.14-23.39.21-2.83-15.91-7.16-31.95-16.4-45.21s-24.15-23.41-40.31-23.43c-8.76-.01-17.36,3.04-24.49,8.07-3.68,2.6-6.46,5.76-9.54,8.98-1.73,1.81-7.47,5.39-8,7.78,0,0,6.72-30.2,6.72-30.2,1.91-11.14,2.54-22.29,2.74-33.57.02-1.24.01-2.58-.74-3.56-2.39-3.13-6.89-.44-9.15,1.2-6.51,4.72-13.47,8.96-19.84,13.78-7.79,5.9-16.19,10.98-25.03,15.15-5.12,2.41-10.44,4.55-15.01,7.9-9.79,7.19-11.25,21.52-14.31,32.59l-7.06,25.51-2-.97,2-67.23-6.6.6-51.2,46.5-41.6-41.5c-4.8,6-9.6,12-14.41,18.01-3.1,3.87-6.25,7.7-9.29,11.61-1.13,1.45-2.32,3.65-4.01,4.33-3.53,1.41-4.67-2.63-6.15-2.54-.58.03-91.92,5.16-122.84,6.9l2.49-19.3-72.6,24-1.2,37.4-7.4-3.4v-30.2l-9.8-3.8-36.2,31.4-6.6-8.2h-5v6.8c-.07.23-.15.45-.22.68-11.19,34.03-22.6,68-33.45,102.14.39-10.89.78-21.78,1.18-32.66.24-6.55-.52-10.79-6.55-13.57-1.01-.46-9.41-4.36-9.76-2.19.11-.69,11-68.99,11-68.99l13.8-66,4.6-26.8c0-2.31-1.32-4.34-3.19-5-2.46-.87-5.65.68-6.61,3.8l-13.6,14.2-72.8,77.2s-16.2,57.4-16.2,57.4c-.47,1.65-6.24,3.38-7.64,4.66-2.68,2.46-3.78,6.18-6.35,8.73-.25-.12-1.81-.77-1.81-1.01-.04-1.9-2.8-118.78-2.8-118.78l-9.8,3.6-1.2,10.8c-2.01,2.84-4.96,6.93-8.6,11.8-19.24,25.73-40.73,50.14-63.92,72.38-2.54,2.44-35.57,32.3-36.68,30.82,0,0,.9,1.2.9,1.2,4.17,5.36,8.2,10.44,14.93,12.72,1,.34,9.37,1.94,9.37.78,0,.15-.1,21.8-.1,21.8l14.3.4c-.13,1.34-.37,3.32-.8,5.7-4.02,22.13-10.87,43.82-15,66-1.82,9.78-3.69,19.82-4.8,33.6-.62,7.67-.54,16.52-.4,34.2.03,4.08.56,8.19,1.16,12.22.98,6.63,1.55,16.81,6.73,21.7,1.63,1.53,3.69,2.5,5.72,3.45,2.95,1.37,5.9,2.74,8.85,4.12.78.36,1.62.73,2.47.58.75-.14,1.35-.66,1.91-1.17,10.87-10.05,16.71-24.86,28.38-33.97,3.15-2.46,6.64-4.43,10.14-6.37,2.05-1.14,4.24-2.41,5.18-4.56.77-1.77.54-3.79.31-5.71-1.81-14.96-2.68-30.27.63-44.97.14-.64.31-1.31.75-1.8.88-.98,2.54-.84,3.61-.07,1.07.77,1.71,1.98,2.38,3.12,5.47,9.35,15.15,16.05,25.74,18.17,5.57,1.12,10.74.66,16.16-.97,5.23-1.58,10.65-3.73,16.2-2.53,1.52.33,3.03.95,4.07,2.1,1.46,1.6,1.79,3.9,2.05,6.06,1.34,11.03,2.05,22.37,4.04,33.29,1.9,10.38,3.74,20.83,5.68,31.23,2.83,15.17,4.91,30.64,10.48,45.13,1.75,4.55,3.91,9.08,7.39,12.51s8.51,5.59,13.28,4.58c.64-.13,1.45-8.09,1.65-9.16.67-3.5,1.52-6.97,2.23-10.46,1.39-6.82,2.64-13.66,3.71-20.53,2.15-13.74,3.61-27.6,4.07-41.5.26-7.97-.22-16-.47-23.97-.03-.94-.73-3.83.41-4.4,1.7-.85,5.71,4.86,6.52,5.79,3.55,4.09,7.25,8.04,11.19,11.76,2.38,2.25,4.78,4.48,7.17,6.72.58.54,1.18,1.1,1.9,1.44.72.34,1.6.44,2.3.06.58-.31.96-.89,1.29-1.46,4.24-7.32,5.42-16.52,7.55-24.59,2.04-7.74,4.24-15.45,7-22.96,1.27-3.47,2.64-6.9,4.11-10.29,1.37-3.17,1.92-6.38,2.76-9.71.59-2.36,1.5-4.71,3.18-6.47.4-.42.92-.82,1.49-.73.68.11,1.05.85,1.27,1.51,1.5,4.6.76,9.32.55,14.03-.04.91-.07,1.85.28,2.69.52,1.23,1.77,1.99,3.01,2.5,1.73.71,3.27,1.52,4.91,2.42,7.69,4.22,15.37,8.45,23.06,12.67,3.33,1.83,6.67,3.67,9.86,5.73,3.13,2.03,5.83,4.42,8.69,6.77,2.89,2.37,5.96,4.52,9.17,6.43,1.09.65,5.93,4.11,7.36,2.7.82-.81-.37-3.18-.64-3.99-.79-2.42-1.5-4.86-2.22-7.3-1.5-5.12-2.97-10.26-4.7-15.31-1.69-4.95-3.66-9.9-4.06-15.17-.07-.97-.07-2.02.47-2.83,1.59-2.36,4.97.69,6.22,1.9,1.72,1.66,3.36,3.53,5.59,4.54,2.78,1.25,6.04.93,8.96.06,7.26-2.16,14.32-5.4,21.37-8.19l23.7-8.7c.07.9.23,2.23.6,3.8.14.6.3,1.2.48,1.8,5.34,17.73,23.12,28.55,40.92,29.3,12.38.52,24.83-4.25,36.3-8.4,2.27-.82,6.88-2.52,16-5.9,11.48-4.25,22.52-7.38,34.9-5.5,7.41,1.12,14.91,1.53,22.4,1.6l.4-6-4.2-5-7.6-8.6,14.6-.2c-.05.77-.03,1.92.4,3.2.95,2.82,3.49,5.12,6.2,5.6,1.01.18,2.15.12,7-2.2,6.95-3.33,7.43-4.57,10.4-5,.8-.12,5.34-.69,8.8,2,2.68,2.09,3.41,5.42,4.75,12,.88,4.28,1.26,7.89,1.45,10.4l16.4.8c2.41-7.3,4.86-13.55,7-18.6,2.23-5.27,4.22-9.31,8.2-17.4,5.07-10.3,6.76-13.03,8.6-15.59,3.01-4.18,5.96-7.26,8-9.21h8.6l.8,21.4,50.6,34.2c-.16-9.86-.3-17.68-.4-22.8-.34-19.66-.76-39.04,3.68-58.35,4.46.61,7.93,4.23,10.24,8.1,4.11,6.87,6.52,12.87,13.17,17.74,6.47,4.74,23.38,8.64,23.41,18.06.03,8.76-2.86,22.21.8,30.39,1.39,3.1,4.98,5.49,8.17,4.33,1.93-.7,3.24-2.47,4.33-4.21,5.95-9.48,10-19.11,17.61-27.59,5.96-6.64,13.53-11.3,19.6-17.68,13.5-14.2,23.99-30.62,32.37-48.3,1.62-3.41,18.32-46.64,14.11-47.2,13.11,1.75,26.81,1,40.02.92,8.42-.05,17.13.4,25.52-.51,1.73-.19,3.74-.64,4.45-2.23.52-1.18.09-2.58-.58-3.69ZM391.33,232.51h-10.46l1.73-10.27h9.6l-.87,10.27ZM401.4,185.04l-12-.2,10.2-50.33.24-1.83,14.96,10.57-13.4,41.8ZM401.95,116.32l3.7-28.66,25.35,26.19-29.05,2.48ZM563.92,197.73c-3.65,1.03-7,2.25-9.45,5.27-2.07,2.54-3.34,5.62-5.19,8.32-1.71,2.48-3.56,4.88-5.6,7.09-.9.97-1.83,1.9-2.8,2.8-.31.29-2.61,1.87-2.6,2.23-.29-13.82.83-27.62,4.13-41.07.04-.18,10.97,3.39,11.77,3.61,3.91,1.11,7.89,2.01,11.92,2.56,1.91.26,3.83.45,5.75.54.42.02,2.7.39,2.96.09,0,0,0,5.87,0,5.87,0,.05-9.75,2.37-10.88,2.69ZM547.73,170.1c2.4-4.82,4.8-9.64,7.2-14.46l.67,1.67c1.17,2.93,2.41,5.84,6.08,6.2,2.93.29,6.14-1.2,8.5-2.8.69-.47,1.42-1.01,2.26-.97,1.13.06,2.02,1.1,2.77,1.84.91.9,1.5,1.79,1.87,2.4l-29.33,6.12ZM780.3,173.24c-.62,1.67-1.13,2.69-1.9,4.4-1.62,3.59-2.49,5.95-3,7.2-1.49,3.64-11.32,25.8-14.8,24.8-3.64-1.05.25-27.31,2-39.1.27-1.82.51-3.36.7-4.5l.4-1.5c6.1,1.03,12.2,2.07,18.3,3.1-.4,1.7-.95,3.59-1.7,5.6Z"/>
    <g>
      <path class="cls-2" d="M32.93,378.37s29.47-39.87,40.13-41.47c0,0-2.13-77.47,7.6-91.6,0,0,18.53,60.93,42.27,60.93,1.01,0,3.42-2.6,4.15-3.18,3.18-2.53,6.2-5.23,9.18-7.99,9.04-8.39,13.83-17.85,17.41-29.43,3.11-10.07,5.73-20.29,8.23-30.52,1.47-6.01,2.9-12.03,4.23-18.08.14,14.06.28,28.13.42,42.19.08,8.29.16,16.59.25,24.88,0,.72-7.83,3.9-8.78,4.37-2.82,1.4-5.63,2.8-8.45,4.2-3.37,1.68-6.74,3.35-10.11,5.03h30.67s18.93,130.27,18.93,130.27c2.29-16.29,4.58-32.57,6.87-48.86.11-.78.22-1.56.33-2.34.71-.31,1.42-.63,2.14-.94-.22-29.88-.37-59.75-.68-89.63-1.64-.65-11.64-3.59-11.99-5.57-.13-.8,12.67-3.6,12.67-3.6.47-16.62,1.18-33.23,2.12-49.83,1.82-32.26,6.65-64.18,11.68-96.06,4.43-28.07,10.37-55.84,16.26-83.63,1.38-6.49,2.76-12.99,4.15-19.48l-67.6,70.4s-44.2,150.59-44.2,150.6c.33-1.12-1.31-4.39-1.61-5.47-1.33-4.76-2.53-9.57-3.59-14.4-5.12-23.29-5.23-47.19-6.02-70.93-.66-19.73-1.22-39.46-1.75-59.19-.15-5.47-.29-10.94-.43-16.41,0,0-65.8,75.4-87.2,90.8,0,0,39.6-4.8,39.6-4.8-2.54,10.58-5.06,21.16-7.58,31.74-4.75,20-9.48,40.01-14.1,60.05-7.01,30.42-11.94,61.8-9.51,93.08.64,8.28,1.46,17,4.32,24.86Z"/>
      <path class="cls-7" d="M107.4,82.64s-46.6,76-87.2,90.8c14.73-12.56,28.41-26.21,41.56-40.43,14.41-15.58,28.75-31.23,42.78-47.14.95-1.08,1.9-2.16,2.85-3.24Z"/>
      <path class="cls-13" d="M170.27,298.62s9.47,119.62,19.07,130.02c0,0-18.13-125.91-19.07-130.02Z"/>
      <path class="cls-15" d="M59.68,168.47l-.02.1-.07.29-.11.47-.15.65-.19.82-.23.98-.26,1.13-.3,1.28-.33,1.42-.36,1.55-.39,1.67-.42,1.79-.45,1.9-.47,2.01-.49,2.1-.51,2.19-.53,2.27-.55,2.35-.56,2.41-.58,2.47-.59,2.53-.6,2.57-.61,2.61-.62,2.64-.62,2.66-.63,2.68-.63,2.69-.63,2.69-.63,2.69-.63,2.67-.62,2.65-.61,2.63-.61,2.59-.6,2.55-.59,2.5-.57,2.44-.56,2.38-.54,2.31-.52,2.23c-.17.72-.41,1.39-.58,2.11s-.31,1.4-.47,2.09-.28,1.3-.43,1.95c-.14.62-.28,1.18-.42,1.8-.14.58-.29,1.2-.42,1.78-.13.54-.25,1.09-.38,1.63-.12.49-.23.97-.35,1.47-.26,1.1-.5,2.27-.76,3.38-.24,1.02-.44,1.99-.68,3.01,0,.01,0,.03,0,.04-.01.08-.09.26-.1.35-.04.23-.07.42-.11.65-.06.37-.19.74-.25,1.11-.08.49-.23.89-.31,1.38-.1.6-.26,1.16-.36,1.76-.11.7-.34,1.39-.45,2.09-.13.78-.33,1.61-.46,2.39-.14.84-.37,1.73-.51,2.58-.15.9-.35,1.64-.5,2.54s-.37,1.9-.53,2.83-.32,1.83-.48,2.79-.36,1.99-.52,2.96-.33,2.03-.49,2.99-.27,1.79-.42,2.73-.23,1.74-.37,2.68c-.12.86-.25,1.89-.39,2.75-.13.8-.19,1.67-.32,2.47-.12.72-.14,1.36-.25,2.08-.16.98-.18,2.05-.36,3.03s-.16,1.91-.3,2.86c-.04.3-.17,1.27-.18,1.54-.05,1.07-.11,1.82-.23,2.85-.37,3.48-.57,7.08-.7,10.58-.16,4.09-.19,7.83-.2,11.92-.01,3.6.14,7.37.2,10.92.02.88.01,1.78.15,2.64.03.19.42,4.92.47,5.33.11.87.22,1.75.3,2.62.15,1.74.14,2.05.42,3.77.77,4.7.34,2.91,1.33,8.1.12.65,1.49,5.27,2.02,6.78-.4-6.23-.86-12.61-1.34-18.83l-.31-4.13s.28-19.3.38-21.03c0,0,.56-16.86.6-17.53.03-.58.05-7.16.13-7.73.24-1.61.38-3.3.7-4.87.58-2.82.64-5.25,1.23-8.07.35-1.7.7-3.52,1.05-5.23.39-1.89.73-3.76,1.12-5.65.42-2.05.88-4.13,1.3-6.17.45-2.19.95-4.16,1.4-6.35.48-2.3,1.07-4.7,1.55-7s.95-4.74,1.45-7.13,1.06-4.92,1.57-7.37,1.05-4.98,1.57-7.47,1.01-4.9,1.53-7.4,1.18-5.15,1.7-7.63,1.07-4.72,1.58-7.18,1-4.78,1.49-7.17.96-4.61,1.44-6.92.92-4.39,1.37-6.59c.43-2.06.86-4.13,1.29-6.19.4-1.9.79-3.81,1.19-5.71.36-1.72.72-3.44,1.08-5.17.32-1.51.63-3.03.95-4.54.27-1.28.53-2.57.8-3.85.21-1.03.43-2.05.64-3.08.16-.75.31-1.49.47-2.24.09-.44.18-.88.28-1.32.02-.12.05-.23.07-.35,0,0-1.53,0-1.53,0Z"/>
      <polygon class="cls-4" points="168.99 98.97 124.6 245.94 120.8 248.77 165 98.44 232.6 28.04 231.98 32.45 168.99 98.97"/>
      <polygon class="cls-7" points="139.47 297.71 166.87 284.31 166.13 217.17 166.13 217.17 167.54 217.25 168.13 240.44 169.07 278.24 169.07 285.57 140.67 297.71 139.47 297.71"/>
    </g>
    <g>
      <path class="cls-8" d="M895.65,151.57l-11.73-27.47-52.8,1.33c.55-.02-3.55-23.95-4.06-26.37-2.1-9.95-5.68-19.58-12.56-27.25-7.66-8.53-18.54-14.29-30.23-13.19-15.31,1.44-27.26,14.01-35.81,25.74-6.22,8.53-11.62,17.52-17.2,26.45-5.99,9.58-11.81,19.53-15.13,30.4-.46,1.5-4.85,26.08-3.13,26.08h16.53c-2.96,0-7.15,2.42-9.94,3.37-1.7.58-4.19.94-5.7,1.93-2.5,1.63-1.75,4.89-1.9,7.88-.78,16.29-1.55,33.39,4.31,48.92,3.45,9.14,9.33,17.57,17.39,23.2,1.69,1.18,22.17,8.14,22.23,6.97,0,.03-1.07,19.47-1.07,20.27,0-1.29,4.77-5.08,5.6-5.96,3.8-4.06,7.7-7.99,11.57-12,8.33-8.62,16.2-17.69,23.56-27.16,6.59-8.49,11.41-18.24,16.63-27.59,5.34-9.57,9.63-19.74,12.74-30.26.56-1.89,5.36-25.56,5.11-25.56,0,0,65.6.27,65.6.27ZM800.8,126.24l-35.07.53,17.73,22.8,14,.07c-.25,2.17-.72,5.27-1.67,8.93-.78,3.01-1.55,5.12-3.13,9.4-2.88,7.75-4.31,11.62-4.87,13-2.65,6.59-4.72,11.72-8.2,18.27-2.17,4.08-4.97,8.86-8.53,14-4.68,6.74-3.21,3.34-10.8,13.2-2.39,3.1-4.73,6.3-7.13,5.87-.92-.17-1.56-.85-2.8-2.2-1.07-1.17-2.65-2.92-3.87-5.93-1.78-4.39-1.33-8.52-1.53-10.67-.73-7.69-.46-13.44-.07-21.07.32-6.21.61-11.61,1.8-18.87.3-1.81,1.21-7.12,3-13.93.87-3.31.88-2.91,3.47-11.47,3.18-10.54,3.61-12.61,5.47-17.2.93-2.3,1.86-4.25,3.73-8.13,7.31-15.2,11.02-20.17,12.67-22.27,6.2-7.89,9.39-8.53,11.27-8.4,2.36.16,4.63,1.68,4.8,1.8,1.1.75,2.37,1.92,4.2,5.33.52.97,2.25,4.28,3.73,9.73,1.42,5.22,1.74,9.16,1.8,10,.21,2.85.14,5.31,0,7.2Z"/>
      <path class="cls-16" d="M793.17,59.1c-3.26-.85-6.77-.92-10.12-.56-2.35.25-4.69.94-8.2,2.35-2.79,1.13-3.1,1.4-7.85,4.3-5.15,3.14-7.76,6.49-11.73,10.8-1.03,1.11-2.73,3.08-3.3,3.78-.99,1.21-.68,1.11-2.92,4.07-1.84,2.43-2.3,2.95-5.08,6.94-4.38,6.29-8.05,12.71-12.18,19.17s-8.62,13.7-11.59,20.66c-1.95,4.56-3.52,8.72-4.6,13.59.86,0,1.71,0,2.57-.01.27,0,1.33-4.57,1.5-5.05.62-1.71.93-3.36,1.6-5.05,1.33-3.39,2.32-6.44,4-9.52,1.13-2.37,2.07-3.96,2.4-4.5.85-1.37,1.64-2.8,2.09-3.65.97-1.82.84-1.38,1.8-2.88,1.93-2.99,3.78-6.18,5.8-9.1,2.99-4.32,5.21-8.18,8.2-12.5,2.39-3.45,5.44-7.36,8.1-10.6,1.67-2.03,2.2-3.09,4.03-5.1.52-.57,2.08-2.21,2.77-2.9,1-1,2.97-2.86,3.5-3.3,5.71-4.69,9.29-6.23,16.1-9.13,1.59-.67,6.69-1.84,8.26-1.97s3.34-.25,4.84.15Z"/>
      <polygon class="cls-7" points="766.39 126.76 800.33 126.24 800.33 127.84 766.55 127.84 765.73 126.77 766.39 126.76"/>
      <polygon class="cls-7" points="831.12 125.44 831.12 126.64 884.63 125.78 883.92 124.11 831.12 125.44"/>
      <path class="cls-7" d="M753.73,232.35c.83.27,1.74.73,2.6.85.69.1,1.34-.75,1.87-1.22.71-.62,1.42-1.26,2.11-1.91,2.76-2.6,5.35-5.39,7.72-8.34,4.13-5.13,7.8-10.59,11.12-16.28,3.99-6.84,7.79-13.89,11.16-21.06.84-1.8,1.65-3.61,2.39-5.45,2.81-6.91,4.77-14.16,5.88-21.54.4-2.64.69-5.3.88-7.96,0,0-2,.2-2,.2-1.17,7.89-3.54,15.32-6.38,22.75-.9,2.36-1.82,4.71-2.71,7.08-2.72,7.25-5.94,14.44-9.6,21.27-.55,1.02-1.12,2.02-1.7,3.02-1.93,3.28-4.03,6.57-6.25,9.7-2.24,3.16-4.83,5.98-7.33,8.92-.79.93-1.56,1.87-2.29,2.84-1.24,1.64-2.55,3.28-3.91,4.82-.97,1.1-2.31,1.63-3.59,2.3Z"/>
    </g>
    <g>
      <path class="cls-10" d="M649,53.84l-36.4,31.6-1,21.4,3.4,2.4h-3.4l-7.2,57.8-31.8,5.2v4l28.2,13-6.2,36,35-29.6.6-3,33-10.4s-13.2,71.6-10.2,87.4c0,0,27.6,19,27.6,19-.9-.59-.03-9.75-.02-11.2.02-4.06.09-8.11.21-12.17.24-8.09.71-16.19,1.55-24.24,1.67-15.92,5.24-31.41,9.57-46.79,2.16-7.69,4.46-15.33,6.69-23,0,0,22.2-4.8,30.6-5.6l.8-22.4s-13.4,1.8-22.6,1.4c.81.04,5.47-18.99,5.82-20.23,4.14-14.48,8.27-28.97,12.2-43.51,2.38-5.35,3.25-12.01,4.78-17.67s2.99-11.26,4.42-16.91c1.95-7.74,4.39-15.71,5.18-23.68-13.58,8.02-27.16,17.18-41.54,23.65-1.74.78-3.57,1.5-4.92,2.85-2.24,2.23-2.58,5.5-3.08,8.45-.68,4.01-1.39,8.01-2.08,12.02-1.38,8.02-2.76,16.04-4.19,24.05-2.87,16.01-5.98,31.98-9.85,47.78-.19.79-.39,1.58-.59,2.36-.56,2.23-1.09,4.5-1.93,6.64l-33.8,7.2c1.09-.23,2.46-17.32,2.64-18.64,2.12-15.42,4.11-30.87,5.8-46.34,1.4-12.82,3.08-25.9,2.76-38.82Z"/>
      <path class="cls-14" d="M628.2,206.24l-3.6,34.8s-23.8,30.2-28.6,50.4c0,0-8.6-12.8-20.8-11.6l6.8-5.2-6-2.6,12-.4,4.2-30.8,36-34.6Z"/>
      <path class="cls-7" d="M739.8,22.64s-.39,3.15-.39,3.15c-6.95,4.4-13.9,8.8-20.91,13.1-3.55,2.18-7.08,4.37-10.69,6.45-2.55,1.47-5.23,2.67-7.84,4.03s-4.84,2.4-5.9,5.16c-.57,1.47-.77,3.05-.99,4.61-1.16,8.14-2.73,16.22-4.32,24.28-3.14,15.86-6.36,31.7-10.31,47.37-.92,3.66-1.89,7.31-2.82,10.96-.43,1.7-.85,3.42-1.29,5.12-.14.55-1.06,5.31-1.41,5.36-7.94,1.22-15.88,2.44-23.83,3.66-3.75.58-7.6.95-11.31,1.74,6.62-1.41,13.25-2.82,19.87-4.23,4.64-.99,9.28-1.98,13.93-2.97.41-.09,1.25-5.15,1.4-5.77.48-2,.96-4,1.44-6,.95-4,1.89-8,2.81-12.01,1.79-7.86,3.54-15.74,5-23.66,1.5-8.16,2.95-16.33,4.37-24.51,1.41-8.09,2.38-16.42,4.26-24.42.6-2.55,1.48-4.62,3.83-5.94,5.98-3.37,12.34-6.33,18.43-9.6,4.77-2.56,9.37-5.44,14.02-8.22l12.64-7.66Z"/>
      <polygon class="cls-7" points="649 53.84 649 57.69 615.6 85.84 613.86 108.44 611.6 106.84 612.6 85.44 649 53.84"/>
      <polygon class="cls-7" points="611.6 109.24 613.75 109.24 607.35 167.69 611.65 168.54 572.6 176.44 572.6 172.24 604.4 167.04 611.6 109.24"/>
      <polygon class="cls-16" points="593.68 239.59 589.74 272 591.01 272.07 590.28 273.74 581.2 273.74 575.82 272.12 587.61 272 591.94 241.27 593.68 239.59"/>
      <path class="cls-7" d="M665.6,182.06s-12.16,85.9-10.37,89.12l-2.23-1.53c-.17-.12-.24-1.81-.27-2.01-.21-1.59-.12-3.87-.17-5.54-.1-3.75.44-7.58.72-11.65.15-2.22.44-4.42.65-6.63.12-1.33.36-2.77.43-4.12.05-.97.26-1.95.39-2.91.32-2.32.51-4.72.84-7.05.59-4.19,1.19-8.37,1.84-12.55.37-2.37.76-4.73,1.1-7.11.17-1.18.34-2.36.51-3.55.34-2.42.69-4.84,1.03-7.26.46-3.24,1.02-6.95,1.42-9.65.09-.63.2-1.07.37-1.68l1.33-5.7,2.4-.18Z"/>
      <path class="cls-16" d="M707.3,144.89s20.6-.1,22.6-1.4l-.09,2.5-22.51-.5v-.6Z"/>
    </g>
    <g>
      <path class="cls-6" d="M567.87,142.24c11.74-7.91,53.62-28.8,36-48.53,0,0-37.87-38.13-37.87-38.13-1.11-1.12-35.24,39.98-38.24,44.17-11.1,15.5-20.34,32.34-27.43,50.03-2.79,6.96-5.21,14.07-7.22,21.3-2.05,7.35-3.7,14.83-4.85,22.37-1.14,7.47-1.8,15.03-1.85,22.59-.05,7.79.62,15.46,2.71,22.99,1.68,6.06,4.11,11.89,6.94,17.51,4.36,8.65,11.43,16.17,21.23,18.15,5.82,1.18,11.78.39,17.54-.76,2.23-.45,4.59-.79,6.68-1.72s3.88-2.77,6.28-3.13c1.76-.26,3.59.59,4.69,1.99,1.23,1.58,3.52,11.83,2.48,13.57,0,0,6.35-10.7,16.3-11.45,0,0-3-9.25-14.55-13.75l79.57-71.07s-70.53,20.53-70.53,20.53c-3.47,4.55-7.25,8.89-11.15,13.08-5.94,6.38-13.87,15.52-22.48,18.21-1.57.49-3.42.42-4.72-.61-.99-.79-1.53-2.01-1.93-3.21-1.99-5.97-1.68-12.42-1.62-18.62.14-14.34.97-29.93,5.05-43.75,3.96-13.43,10.23-26.41,16.99-38.63,3.38-6.11,6.81-11.34,11.75-16.31,2.07-2.08,4.74-5.11,7.83-5.62,4.6-.77,3.38,10.84,3.25,13.25-.2,3.92-.4,7.83-.63,11.75-.02.41.15,3.55-.23,3.8Z"/>
      <path class="cls-7" d="M565.77,55.51c.61.62,1.46,1.4,2.07,2.01-14.19,15.42-28.23,31.13-40.25,48.33-11.58,16.57-21.07,34.45-27.54,53.63-6.32,18.72-9.9,38.37-10.56,58.13-.28,8.39.24,17.56,1.03,25.92-.6-2.11-1.75-4.83-2.25-7.32-.54-2.63-1.24-5.4-1.37-7.9-.27-5.12-.43-10.56-.47-15.69-.08-10.25,1.06-20.52,3.4-30.51,4.25-18.13,10.64-35.81,19.41-52.26,9.32-17.49,21.57-33.76,34.04-49.23,7.28-9.04,14.64-17.75,22.49-25.12Z"/>
      <path class="cls-7" d="M529.55,240.42c1.49.52,3.15.27,4.65-.22,2.74-.89,5.19-2.49,7.49-4.22,3.97-2.99,7.6-6.4,10.98-10.04,3.46-3.72,6.59-7.7,9.82-11.62.28-.34.56-.68.84-1.02.42-.5.85-.99,1.3-1.46.59-.62,1.23-1.2,1.96-1.66,1.09-.69,2.34-1.09,3.57-1.48,10.46-3.33,20.91-6.66,31.37-9.99,2.8-.89,5.59-1.78,8.39-2.67-5.33,1.55-10.65,3.1-15.98,4.64s-10.65,3.1-15.98,4.64c-2.08.6-4.15,1.21-6.23,1.79-1.05.3-2.11.58-3.17.87-.95.25-2.15.36-3,.88-.43.26-.54.59-.73,1.01-.5,1.12-1.59,1.84-2.32,2.78-1.19,1.53-2.35,3.08-3.66,4.52-1.35,1.49-2.72,2.95-4.1,4.42-3.55,3.79-6.96,7.74-10.93,11.1-3.81,3.23-8.15,5.98-12.98,7.37-.27.08-1.04.43-1.3.34Z"/>
      <path class="cls-7" d="M548.74,269.04c1.34-.21,2.76-.22,4.11-.05,1.01.13,2.05.38,2.91.95.4.27.75.6,1.01,1.01.42.68.48,1.54.52,2.33.09,1.77-.28,3.61-.65,5.34-.32,1.48-.71,2.95-1.15,4.4-.17.54-.34,1.09-.52,1.62.08-.22.05-.52.07-.74.05-.67.06-1.34.04-2-.04-1.89-.46-3.68-.92-5.51-.23-.92-.35-1.92-.67-2.81-.16-.44-.33-.88-.51-1.32-.16-.4-.31-.9-.56-1.25-.42-.58-1.05-.98-1.69-1.28-.34-.16-.69-.3-1.04-.42-.26-.09-.66-.31-.94-.26Z"/>
    </g>
    <g>
      <path class="cls-3" d="M526,78.51v4.53l11.73,31.73-39.73,2.4,11.73,11.73-23.73,14.93s-3.2,1.87-5.6,0-10.13-6.93-10.13-6.93l-17.33,37.87s42.67-12.53,52.8-10.13l1.07,24.53s-53.87,20-62.4,21.6l-2.4,12.8s40-14.13,52.27-13.07v27.2l-54.4,18.67s-1.6,12,3.73,16.8c0,0,53.87-14.4,61.07-9.87l17.07,24s-64.8,15.73-70.93,20.8c0,0-41.87,14.67-49.6-17.33,0,0-4.27-58.67,4-84.8l-13.87,4.53s-3.47-15.47,17.6-19.47c0,0,13.6-51.92,19.2-55.92l4.27-.61-23.2-9.87,46.93-2.4-35.47-36.53,105.33-7.2Z"/>
      <polygon class="cls-1" points="526 78.51 526 83.04 423.42 88.55 420.67 85.71 526 78.51"/>
      <polygon class="cls-1" points="456.13 122.24 458.13 124.51 411.91 125.79 409.2 124.64 456.13 122.24"/>
      <path class="cls-1" d="M432.4,134.51c-.17.01-.76,1.46-.84,1.61-2.99,5.8-5.8,11.71-8.31,17.73-3.94,9.45-7.28,19.19-9.58,29.18-.74,3.21-1.32,6.47-1.67,9.75,0,.07-2.97.71-3.3.81-4.42,1.38-8.45,3.67-11.57,7.12-1.09,1.21-2.38,2.54-2.97,4.08s-.45,3.25-.22,4.87l-2.6.85s-.2-2.4-.2-2.57c0-1.19.11-2.4.37-3.57,1.6-6.96,8.05-10.98,14.51-12.68.96-.25,1.94-.47,2.91-.66,1.55-5.68,3.06-11.38,4.72-17.03,3.01-10.28,5.8-20.61,9.69-30.62.94-2.42,1.85-5.09,3.4-7.2,1.53-2.08,3.36-1.54,5.66-1.69Z"/>
      <path class="cls-1" d="M452.93,174.77l-.33,2.33c10.26-2.95,20.59-5.65,31.09-7.65,3.73-.71,7.47-1.32,11.22-1.92,1.85-.29,3.7-.58,5.54-.88,1.64-.26,3.45-.36,5.04-.83.31-.09.23-.02.27-.31s-.02-.6-.04-.87c-.01-.29-1.69-.51-1.85-.53-2.23-.31-4.45-.03-6.66.29-5.37.77-10.7,1.74-15.99,2.9-4.83,1.06-9.62,2.28-14.41,3.48-4.66,1.2-9.27,2.62-13.88,3.99Z"/>
      <path class="cls-1" d="M441.75,223.54v3.35c7.59-2.75,15.3-5.18,23.07-7.35,7.88-2.2,15.79-4.29,23.68-6.44,1.92-.52,3.84-1.04,5.76-1.56,0,0,0-1.03,0-1.03-1.66.05-3.38-.04-5.02.19-1.8.25-3.59.54-5.38.87-5.94,1.1-11.79,2.65-17.58,4.34-7.79,2.19-15.47,4.71-23.16,7.19-.46.15-.92.3-1.38.44Z"/>
      <path class="cls-7" d="M443.6,273.17c.62-.15,1.52.02,2.16,0,2.78-.1,5.55-.41,8.31-.74,10.73-1.31,21.48-3,32.1-4.99,2.73-.51,5.45-1.06,8.16-1.67,3.49-.78,6.99-1.51,10.48-2.26,0,0-.79-1.08-4.07-1.06-10.83.06-21.52,2.23-32.03,4.66-8.22,1.9-16.42,3.89-24.6,5.93l-.51.13Z"/>
    </g>
    <g>
      <path class="cls-9" d="M391.33,78.77s-28.53,10.93-42.4,14.93c0,0-19.2,145.87-33.87,180.8,4.36,5.84,9.04,15.44,15.07,19.5,2.86,1.93,6.7,1.63,9.99.58,29.69-9.44,58.8-21.46,88.01-32.35l-12.53-27.73s-42.4,10.13-52.53,14.4c0,0,23.2-113.6,28.27-170.13Z"/>
      <path class="cls-11" d="M363.07,248.91c3.89-.46,7.76-1.06,11.62-1.7,2.91-.48,5.81-1,8.71-1.58,3.28-.65,6.45-1.2,9.58-2.4,1.72-.66,3.45-1.33,5.17-1.99,4.3-1.66,8.6-3.31,12.89-4.97,1.48-.57,3.02-1.38,4.56-1.76-14.23,3.51-28.44,7.04-42.52,11.15-2.54.74-5.06,1.75-7.62,2.39-.04.01-.08.03-.11.04-.76.27-1.52.55-2.28.83Z"/>
      <path class="cls-11" d="M391.12,78.86c0,1.35,0,2.7,0,4.04,0,.58-8.25,3.16-9.22,3.52-3.29,1.23-6.58,2.43-9.87,3.63-6.15,2.23-12.49,5.05-19,6-3.52,21.66-7.04,43.31-10.56,64.97-2.55,15.67-4.89,31.38-8.18,46.91-2.21,10.43-5.09,20.74-7.85,31.04-1.22,4.55-2.48,9.08-3.82,13.6-1.11,3.75-2.27,7.48-3.47,11.2s-2.02,7.86-3.82,11.15c.26-1.16.53-2.4.85-3.56.84-2.97,1.66-5.94,2.52-8.9,6.07-20.94,10.05-42.32,14-63.75,1.1-5.96,2.07-11.94,3.16-17.9,1.48-8.81,2.88-17.64,4.28-26.47,3.18-20.18,6.12-40.39,8.8-60.64,14.06-4.94,28.12-9.89,42.19-14.83Z"/>
    </g>
    <g>
      <path class="cls-12" d="M345.2,209.24l-35.4,9.2,2.4-115.4c-9.47,6.8-18.93,13.6-28.4,20.4-1.6-1.4-3.2-2.8-4.8-4.2-.44,1.22-.87,2.45-1.3,3.67-7.58,21.45-15.7,42.66-21.48,64.69-4,15.25-8.85,30.34-15.14,44.8-2.47,5.67-5.11,11.27-7.94,16.78-.5.97-2.22,5.86-3.34,6.26,0,0-58.2,20.4-58.2,20.4l45.2,11-13,30.4,31.2,30.8,23-76.8,20.6-7.4,2.4,37,31.8,17.2-3.6-69.4,35-9,1-30.4ZM276.53,239.84l-7.07,2.13,7.07-18.93v16.8Z"/>
      <path class="cls-11" d="M312.2,103.04v3.7l-19.9,15.9s-5.1,5.4-8.6,3l-3.5-2.4s-10.2,29-12.87,36.73-6.13,20.8-7.6,26.27c0,0-7.6,23.6-11.47,33.07s-14.67,36.67-14.67,36.67l-3.33.8-1.73,4.13-45.12,10.79,46.38-16.26,6.33-13.47,10.15-22.53,8.5-26.52,6.44-22.59,4.28-13.02,11.76-33.19,1.74-4.89,4.8,4.2,28.4-20.4Z"/>
      <polygon class="cls-11" points="278.6 263.84 283.88 302.4 281 300.84 278.6 263.84"/>
      <polygon class="cls-11" points="203.8 317.24 205.48 318.9 216.8 286.84 203.8 317.24"/>
      <polygon class="cls-11" points="276.53 223.04 276.53 239.84 279.2 239.04 277.87 223.04 276.53 223.04"/>
      <path class="cls-11" d="M301.6,222.24l44.53-11.87s-16.8,1.07-26.27,4.27-18.27,7.6-18.27,7.6Z"/>
    </g>
  </g>
</svg>